<svg width="26" height="27" viewBox="0 0 26 27" fill="none" xmlns="http://www.w3.org/2000/svg">
<path d="M9.49998 22.1668C3.66665 23.9168 3.66665 19.2501 1.33331 18.6668M17.6666 25.6668V21.1518C17.7104 20.5954 17.6352 20.0362 17.4462 19.5112C17.2571 18.9862 16.9584 18.5074 16.57 18.1068C20.2333 17.6984 24.0833 16.3101 24.0833 9.94009C24.083 8.31122 23.4565 6.74482 22.3333 5.56509C22.8651 4.14001 22.8275 2.56483 22.2283 1.16676C22.2283 1.16676 20.8516 0.758423 17.6666 2.89342C14.9927 2.16872 12.174 2.16872 9.49998 2.89342C6.31498 0.758423 4.93831 1.16676 4.93831 1.16676C4.33909 2.56483 4.30148 4.14001 4.83331 5.56509C3.70179 6.75357 3.07459 8.33413 3.08331 9.97509C3.08331 16.2984 6.93331 17.6868 10.5966 18.1418C10.2128 18.5384 9.91679 19.0114 9.72784 19.53C9.53889 20.0486 9.46125 20.6012 9.49998 21.1518V25.6668" stroke="#DF3E70" stroke-width="2" stroke-linecap="round" stroke-linejoin="round"/>
</svg>
