<svg width="17" height="18" viewBox="0 0 17 18" fill="none" xmlns="http://www.w3.org/2000/svg">
<path d="M8.50008 0.866394C7.40573 0.866394 6.3221 1.08194 5.31105 1.50073C4.30001 1.91952 3.38135 2.53335 2.60752 3.30717C1.04472 4.86997 0.166748 6.98959 0.166748 9.19973C0.166748 12.8831 2.55841 16.0081 5.86675 17.1164C6.28341 17.1831 6.41675 16.9247 6.41675 16.6997V15.2914C4.10841 15.7914 3.61675 14.1747 3.61675 14.1747C3.23341 13.2081 2.69175 12.9497 2.69175 12.9497C1.93341 12.4331 2.75008 12.4497 2.75008 12.4497C3.58341 12.5081 4.02508 13.3081 4.02508 13.3081C4.75008 14.5747 5.97508 14.1997 6.45008 13.9997C6.52508 13.4581 6.74175 13.0914 6.97508 12.8831C5.12508 12.6747 3.18341 11.9581 3.18341 8.78306C3.18341 7.85806 3.50008 7.11639 4.04175 6.52473C3.95841 6.31639 3.66675 5.44973 4.12508 4.32473C4.12508 4.32473 4.82508 4.09973 6.41675 5.17473C7.07508 4.99139 7.79175 4.89973 8.50008 4.89973C9.20841 4.89973 9.92508 4.99139 10.5834 5.17473C12.1751 4.09973 12.8751 4.32473 12.8751 4.32473C13.3334 5.44973 13.0417 6.31639 12.9584 6.52473C13.5001 7.11639 13.8167 7.85806 13.8167 8.78306C13.8167 11.9664 11.8667 12.6664 10.0084 12.8747C10.3084 13.1331 10.5834 13.6414 10.5834 14.4164V16.6997C10.5834 16.9247 10.7167 17.1914 11.1417 17.1164C14.4501 15.9997 16.8334 12.8831 16.8334 9.19973C16.8334 8.10538 16.6179 7.02175 16.1991 6.0107C15.7803 4.99965 15.1665 4.08099 14.3926 3.30717C13.6188 2.53335 12.7002 1.91952 11.6891 1.50073C10.6781 1.08194 9.59443 0.866394 8.50008 0.866394Z" fill="#333333"/>
</svg>
