<svg width="20" height="21" viewBox="0 0 20 21" fill="none" xmlns="http://www.w3.org/2000/svg">
<path d="M1.66666 6.59302L8.47076 11.3559C9.02173 11.7416 9.29722 11.9344 9.59688 12.0091C9.86157 12.0751 10.1384 12.0751 10.4031 12.0091C10.7028 11.9344 10.9782 11.7416 11.5292 11.3559L18.3333 6.59302M5.66666 17.4264H14.3333C15.7335 17.4264 16.4335 17.4264 16.9683 17.1539C17.4387 16.9142 17.8212 16.5317 18.0608 16.0613C18.3333 15.5265 18.3333 14.8265 18.3333 13.4264V8.09302C18.3333 6.69289 18.3333 5.99282 18.0608 5.45804C17.8212 4.98764 17.4387 4.60518 16.9683 4.3655C16.4335 4.09302 15.7335 4.09302 14.3333 4.09302H5.66666C4.26653 4.09302 3.56646 4.09302 3.03168 4.3655C2.56128 4.60518 2.17882 4.98764 1.93914 5.45804C1.66666 5.99282 1.66666 6.69289 1.66666 8.09302V13.4264C1.66666 14.8265 1.66666 15.5265 1.93914 16.0613C2.17882 16.5317 2.56128 16.9142 3.03168 17.1539C3.56646 17.4264 4.26653 17.4264 5.66666 17.4264Z" stroke="white" stroke-width="1.2" stroke-linecap="round" stroke-linejoin="round"/>
</svg>
