<svg width="19" height="15" viewBox="0 0 19 15" fill="none" xmlns="http://www.w3.org/2000/svg">
<path d="M18.2168 2.19969C17.5751 2.49135 16.8834 2.68302 16.1668 2.77469C16.9001 2.33302 17.4668 1.63302 17.7334 0.791353C17.0418 1.20802 16.2751 1.49969 15.4668 1.66635C14.8084 0.949687 13.8834 0.53302 12.8334 0.53302C10.8751 0.53302 9.27511 2.13302 9.27511 4.10802C9.27511 4.39135 9.30845 4.66635 9.36678 4.92469C6.40011 4.77469 3.75845 3.34969 2.00011 1.19135C1.69178 1.71635 1.51678 2.33302 1.51678 2.98302C1.51678 4.22469 2.14178 5.32469 3.10845 5.94969C2.51678 5.94969 1.96678 5.78302 1.48345 5.53302V5.55802C1.48345 7.29135 2.71678 8.74135 4.35011 9.06635C3.82581 9.21047 3.27514 9.23044 2.74178 9.12469C2.96812 9.83509 3.41139 10.4567 4.00929 10.9021C4.60719 11.3476 5.32965 11.5944 6.07511 11.608C4.8115 12.6084 3.24512 13.1492 1.63345 13.1414C1.35011 13.1414 1.06678 13.1247 0.783447 13.0914C2.36678 14.108 4.25011 14.6997 6.26678 14.6997C12.8334 14.6997 16.4418 9.24969 16.4418 4.52469C16.4418 4.36635 16.4418 4.21635 16.4334 4.05802C17.1334 3.55802 17.7334 2.92469 18.2168 2.19969Z" fill="#333333"/>
</svg>
