<svg width="19" height="15" viewBox="0 0 19 15" fill="none" xmlns="http://www.w3.org/2000/svg">
<path d="M18.2167 2.19969C17.575 2.49135 16.8833 2.68302 16.1667 2.77469C16.9 2.33302 17.4667 1.63302 17.7333 0.791353C17.0417 1.20802 16.275 1.49969 15.4667 1.66635C14.8083 0.949687 13.8833 0.53302 12.8333 0.53302C10.875 0.53302 9.27501 2.13302 9.27501 4.10802C9.27501 4.39135 9.30834 4.66635 9.36667 4.92469C6.40001 4.77469 3.75834 3.34969 2.00001 1.19135C1.69167 1.71635 1.51667 2.33302 1.51667 2.98302C1.51667 4.22469 2.14167 5.32469 3.10834 5.94969C2.51667 5.94969 1.96667 5.78302 1.48334 5.53302V5.55802C1.48334 7.29135 2.71667 8.74135 4.35001 9.06635C3.82571 9.21047 3.27504 9.23044 2.74167 9.12469C2.96801 9.83509 3.41129 10.4567 4.00919 10.9021C4.60709 11.3476 5.32955 11.5944 6.07501 11.608C4.8114 12.6084 3.24502 13.1492 1.63334 13.1414C1.35001 13.1414 1.06667 13.1247 0.78334 13.0914C2.36667 14.108 4.25001 14.6997 6.26667 14.6997C12.8333 14.6997 16.4417 9.24969 16.4417 4.52469C16.4417 4.36635 16.4417 4.21635 16.4333 4.05802C17.1333 3.55802 17.7333 2.92469 18.2167 2.19969Z" fill="white"/>
</svg>
